<?xml version="1.0" standalone="no"?>
<!DOCTYPE svg PUBLIC "-//W3C//DTD SVG 20010904//EN"
 "http://www.w3.org/TR/2001/REC-SVG-20010904/DTD/svg10.dtd">
<svg version="1.0" xmlns="http://www.w3.org/2000/svg"
 width="1280.000000pt" height="1280.000000pt" viewBox="0 0 1280.000000 1280.000000"
 preserveAspectRatio="xMidYMid meet">
<metadata>
Created by potrace 1.15, written by Peter Selinger 2001-2017
</metadata>
<g transform="translate(0.000000,1280.000000) scale(0.100000,-0.100000)"
fill="#000000" stroke="none">
<path d="M6195 12230 c-1027 -74 -1968 -392 -2795 -945 -362 -242 -539 -393
-1001 -855 -388 -387 -499 -511 -689 -761 -218 -289 -387 -564 -550 -894 -286
-578 -484 -1222 -574 -1861 -74 -524 -85 -1109 -30 -1634 161 -1563 871 -2778
2079 -3562 901 -585 1933 -892 3250 -968 219 -13 792 -13 1010 0 735 43 1315
157 1905 377 96 36 198 76 225 90 33 17 103 78 203 177 180 177 193 194 203
257 7 46 1 63 -156 446 -210 511 -201 493 -220 493 -9 0 -78 -24 -153 -54
-462 -182 -981 -300 -1552 -351 -383 -35 -1000 -30 -1415 11 -1070 106 -1963
443 -2630 993 -116 96 -314 290 -419 411 -436 502 -733 1146 -851 1842 -50
300 -60 426 -59 823 0 482 29 774 119 1174 93 417 219 776 405 1156 394 801
900 1323 1675 1726 416 216 904 375 1365 444 726 110 1510 50 2160 -165 447
-148 832 -353 1175 -626 147 -117 419 -392 529 -534 395 -510 615 -1044 692
-1680 24 -196 24 -645 0 -888 -41 -417 -120 -760 -253 -1097 -99 -251 -248
-526 -367 -676 -107 -136 -464 -318 -731 -373 -177 -37 -393 -44 -486 -17 -65
20 -115 65 -150 136 -31 63 -32 72 -31 168 1 56 8 149 16 207 34 239 36 250
765 3460 178 785 189 840 186 919 -2 55 -8 87 -17 92 -7 5 -262 9 -567 9
l-555 0 -167 -166 -167 -166 -58 48 c-84 68 -253 176 -364 233 -183 94 -376
153 -610 188 -165 25 -572 24 -728 0 -478 -76 -898 -267 -1307 -593 -125 -100
-684 -654 -796 -789 -324 -390 -542 -785 -720 -1303 -153 -449 -226 -881 -236
-1402 -9 -462 29 -764 139 -1094 188 -565 531 -967 1045 -1224 416 -208 998
-266 1478 -146 157 39 268 80 430 158 272 131 469 268 747 519 47 43 88 74 91
70 2 -4 10 -26 17 -48 40 -127 162 -309 273 -410 131 -120 343 -242 502 -290
159 -48 246 -59 460 -58 554 1 1083 139 1541 403 290 167 494 329 794 629 371
371 573 645 781 1061 256 511 405 1052 476 1730 25 238 25 911 0 1130 -66 583
-195 1048 -423 1519 -98 203 -154 302 -289 506 -161 243 -300 412 -529 641
-226 226 -393 363 -641 529 -213 142 -339 214 -580 331 -581 282 -1165 441
-1875 510 -192 18 -811 27 -995 14z m-44 -3866 c282 -34 544 -138 767 -303
110 -82 212 -179 212 -203 0 -22 -392 -1748 -440 -1938 -66 -262 -173 -527
-297 -736 -131 -219 -155 -243 -356 -345 -177 -90 -342 -134 -539 -145 -312
-18 -579 65 -759 233 -265 250 -376 654 -340 1244 23 376 76 663 181 979 172
512 413 886 684 1062 248 160 488 201 887 152z"/>
</g>
</svg>
